HIERARCHY
ROOT root
{
	OFFSET	0	13.1	24.9
	CHANNELS 6  Xposition Yposition Zposition Xrotation Yrotation Zrotation
	JOINT spine_1
	{
		OFFSET	0	9.99999	0
		CHANNELS 3  Xrotation Yrotation Zrotation
		JOINT spine_2
		{
			OFFSET	0	112	-10
			CHANNELS 3  Xrotation Yrotation Zrotation
			JOINT spine_3
			{
				OFFSET	0	206.5	19.3
				CHANNELS 3  Xrotation Yrotation Zrotation
				JOINT spine_4
				{
					OFFSET	0	110.4	14.6
					CHANNELS 3  Xrotation Yrotation Zrotation
					JOINT neck_1
					{
						OFFSET	0	71.8	-50.3
						CHANNELS 3  Xrotation Yrotation Zrotation
						JOINT neck_2
						{
							OFFSET	0	86.2	-25.8
							CHANNELS 3  Xrotation Yrotation Zrotation
							JOINT head_ee
							{
								OFFSET	0	179.8	-8.7
								CHANNELS 3  Xrotation Yrotation Zrotation
								End Site
								{
									OFFSET	1	0	0
								}
							}
						}
					}
					JOINT left_clavicle
					{
						OFFSET	-43.2	22.4	-70.8
						CHANNELS 3  Xrotation Yrotation Zrotation
						JOINT left_shoulder
						{
							OFFSET	-93.9	-5.79999	48.7
							CHANNELS 3  Xrotation Yrotation Zrotation
							JOINT left_elbow
							{
								OFFSET	-291.4	-30.8	15.2
								CHANNELS 3  Xrotation Yrotation Zrotation
								JOINT left_lowarm_twist
								{
									OFFSET	-110.7	-3.89999	13.6
									CHANNELS 3  Xrotation Yrotation Zrotation
									JOINT left_hand
									{
										OFFSET	-110.7	-3.89999	13.6
										CHANNELS 3  Xrotation Yrotation Zrotation
										JOINT left_ee
										{
											OFFSET	-80.8	-5.10001	12.1
											CHANNELS 3  Xrotation Yrotation Zrotation
											End Site
											{
												OFFSET	1	0	0
											}
										}
									}
								}
							}
						}
					}
					JOINT right_clavicle
					{
						OFFSET	43.2	22.4	-70.8
						CHANNELS 3  Xrotation Yrotation Zrotation
						JOINT right_shoulder
						{
							OFFSET	93.9	-5.79999	48.7
							CHANNELS 3  Xrotation Yrotation Zrotation
							JOINT right_elbow
							{
								OFFSET	291.4	-30.8	15.2
								CHANNELS 3  Xrotation Yrotation Zrotation
								JOINT right_lowarm_twist
								{
									OFFSET	110.7	-3.89999	13.6
									CHANNELS 3  Xrotation Yrotation Zrotation
									JOINT right_hand
									{
										OFFSET	110.7	-3.89999	13.6
										CHANNELS 3  Xrotation Yrotation Zrotation
										JOINT right_ee
										{
											OFFSET	80.8	-5.10001	12.1
											CHANNELS 3  Xrotation Yrotation Zrotation
											End Site
											{
												OFFSET	1	0	0
											}
										}
									}
								}
							}
						}
					}
				}
			}
		}
	}
	JOINT left_hip
	{
		OFFSET	-82.8	-127.5	0.300001
		CHANNELS 3  Xrotation Yrotation Zrotation
		JOINT left_knee
		{
			OFFSET	-28.2	-396.7	2.2
			CHANNELS 3  Xrotation Yrotation Zrotation
			JOINT left_ankle
			{
				OFFSET	-11.7	-411.3	35.4
				CHANNELS 3  Xrotation Yrotation Zrotation
				JOINT left_toes
				{
					OFFSET	0	-60	-88.6
					CHANNELS 3  Xrotation Yrotation Zrotation
					JOINT left_foot_ee
					{
						OFFSET	-22.5	-16.5	-42.2
						CHANNELS 3  Xrotation Yrotation Zrotation
						End Site
						{
							OFFSET	1	0	0
						}
					}
				}
			}
		}
	}
	JOINT right_hip
	{
		OFFSET	82.8	-127.5	0.300001
		CHANNELS 3  Xrotation Yrotation Zrotation
		JOINT right_knee
		{
			OFFSET	28.2	-396.7	2.2
			CHANNELS 3  Xrotation Yrotation Zrotation
			JOINT right_ankle
			{
				OFFSET	11.7	-411.3	35.4
				CHANNELS 3  Xrotation Yrotation Zrotation
				JOINT right_toes
				{
					OFFSET	0	-60	-88.6
					CHANNELS 3  Xrotation Yrotation Zrotation
					JOINT right_foot_ee
					{
						OFFSET	22.5	-16.5	-42.2
						CHANNELS 3  Xrotation Yrotation Zrotation
						End Site
						{
							OFFSET	1	0	0
						}
					}
				}
			}
		}
	}
}
MOTION
Frames: 16
Frame Time: 0.02
3177.02 653.055 -1669.29 -40.2036336681 74.6375242469 32.7838208057 2.95809 1.25522 5.99614 2.97766 0.871843 6.06352 3.06432 -0.0934156 6.12493 3.01307 0.873267 6.06331 -11.3563 2.03497 -11.4814 -11.0281 11.3811 -10.5921 -0.0 0.0 -0.0 -8.404 21.6026 -9.66714 -21.8319 -15.0861 67.8392 0.179815 -5.09032 0.00799285 -0.584485 -0.0209602 0.0717002 -0.918997 28.8662 6.29219 -0.0 0.0 -0.0 10.8599 2.91313 -21.5964 12.8914 32.0028 -72.5838 2.66929 52.8919 -1.3279 16.6035 -0.283287 2.09463 -1.33684 27.1488 20.3552 0.0 0.0 0.0 38.7519 6.47503 1.29932 0.100651 -0.00415738 -0.0148862 -0.283606 1.28271 0.0418561 -38.5911 0.0 0.0 -0.0 0.0 -0.0 -10.0264 1.8537 5.10805 -9.24613 -0.268858 -1.39199 38.8878 3.85667 4.81854 16.1262 -0.0 -0.0 0.0 0.0 0.0 
3132.48147208 653.02 -1670.93740119 -42.7726830704 73.8950092237 35.4156291837 3.22579 1.21705 6.16321 3.24653 0.823185 6.22781 3.32839 -0.138629 6.28024 3.27441 0.853003 6.22381 -10.192 1.52899 -10.9224 -9.87317 10.2489 -10.2997 -0.0 0.0 -0.0 -8.15886 21.2414 -9.42685 -21.9704 -14.8603 68.8677 0.199854 -5.6541 0.0098691 -1.02337 -0.0371799 0.125398 -0.808993 28.8163 6.86706 -0.0 0.0 -0.0 10.8914 2.8365 -21.6605 11.4537 30.9722 -73.4 2.67626 52.9637 -1.33346 16.638 -0.283239 2.09903 -1.25946 26.6459 19.6428 0.0 0.0 0.0 38.9412 6.23871 1.0812 -3.83016 0.138641 0.571353 -0.769982 3.32762 0.113335 -37.6076 0.0 0.0 -0.0 0.0 -0.0 -10.3013 3.72463 5.97095 -11.4025 -0.299017 -1.72147 39.2075 3.85375 4.84664 16.1485 -0.0 -0.0 0.0 0.0 0.0 
3100.04833817 657.137 -1671.37740883 -45.6408431241 74.108670467 38.2359735929 3.43538 1.04906 6.0888 3.45575 0.660233 6.14293 3.51778 -0.267122 6.17242 3.46536 0.709173 6.1375 -9.78327 1.8967 -9.5618 -9.53883 10.0741 -8.91137 -0.0 0.0 -0.0 -8.06901 20.3358 -9.60945 -21.6201 -14.9883 68.8646 0.220007 -6.21999 0.0119537 -1.15261 -0.0420345 0.141188 -0.526143 28.6295 8.33087 -0.0 0.0 -0.0 10.9568 2.64372 -21.7919 9.01553 29.9731 -73.5592 2.60289 52.1956 -1.27519 16.6453 -0.283229 2.09996 -1.16975 26.4266 18.9533 0.0 0.0 0.0 38.1019 6.22544 1.2016 -5.87074 0.196812 0.879098 -0.448241 5.07583 0.0657785 -37.3056 0.0 0.0 -0.0 0.0 -0.0 -10.6301 5.41507 6.32846 -12.6305 -0.310644 -1.90953 39.6149 3.9918 4.88401 16.2515 -0.0 -0.0 0.0 0.0 0.0 
3052.46223041 665.825 -1673.60254393 -47.9899559997 75.3064968593 40.733268549 3.69826 1.00853 5.95317 3.71774 0.628374 6.00502 3.77377 -0.251026 6.03249 3.72372 0.703094 5.99676 -7.92902 4.93593 -6.28432 -7.8144 13.6525 -5.18259 -0.0 0.0 -0.0 -8.13282 18.0576 -10.504 -19.2345 -17.8501 67.7777 0.335237 -9.42905 0.027647 -0.389714 -0.013894 0.0478305 0.02488 28.9787 11.4733 -0.0 0.0 -0.0 10.8867 2.76989 -21.6475 4.46068 28.7277 -75.2227 2.20782 47.5559 -0.972848 16.0989 -0.283678 2.03017 -0.948036 24.5181 16.7179 0.0 0.0 0.0 35.5202 4.95061 2.3789 -8.64796 0.258296 1.30081 6.03922 6.78326 -0.869744 -36.1281 0.0 0.0 -0.0 0.0 -0.0 -8.25894 7.08611 5.28379 -19.5332 -0.300901 -2.96792 40.2318 0.83095 4.9024 17.6507 -0.0 -0.0 0.0 0.0 0.0 
3026.73424651 670.906 -1673.69904718 -49.4052189263 75.6269760809 41.8336678727 3.84068 0.98274 6.05433 3.86086 0.596231 6.10434 3.91338 -0.282513 6.12679 3.86169 0.686808 6.09485 -7.09491 5.58092 -5.66449 -6.98264 14.4458 -4.53845 -0.0 0.0 -0.0 -8.08969 17.063 -10.7757 -18.1534 -19.1719 67.3809 0.383145 -10.747 0.0360393 0.0813239 0.00285837 -0.00999273 0.181213 29.1342 12.3864 -0.0 0.0 -0.0 10.6038 3.09503 -21.057 2.06807 28.2161 -75.3187 1.98393 44.4975 -0.811663 15.7979 -0.283642 1.99173 -0.84349 23.6156 15.6551 0.0 0.0 0.0 34.294 4.03778 3.28655 -9.63808 0.275261 1.45179 9.1447 6.06173 -1.30433 -35.8444 0.0 0.0 -0.0 0.0 -0.0 -6.60276 7.70513 5.08352 -23.9065 -0.228843 -3.63497 40.3917 -1.15741 4.90198 18.9645 -0.0 -0.0 0.0 0.0 0.0 
3000.3163226 672.681 -1673.18073164 -51.6001954069 75.7804208876 43.7875485692 3.98437 0.887851 5.93297 4.0038 0.509212 5.97723 4.04555 -0.337012 5.98936 3.99605 0.6114 5.96767 -6.30486 5.65717 -6.84142 -6.1193 15.4721 -5.83072 -0.0 0.0 -0.0 -8.06309 15.8698 -11.1365 -16.5909 -20.3989 67.6175 0.480921 -13.4002 0.0564966 0.777823 0.0267559 -0.095737 0.430235 29.0736 13.744 -0.0 0.0 -0.0 10.3526 3.38153 -20.5323 -0.965317 26.2739 -75.0386 1.82209 42.0657 -0.700684 14.0109 -0.279265 1.76353 -0.415942 22.9564 12.5179 0.0 0.0 0.0 32.9841 2.98182 4.69868 -10.1616 0.283177 1.53174 13.4357 3.37707 -1.89121 -35.5905 0.0 0.0 -0.0 0.0 -0.0 -5.50555 9.07861 4.69945 -28.0682 -0.113198 -4.26304 40.1925 -2.88668 4.87752 19.7957 -0.0 -0.0 0.0 0.0 0.0 
2978.78850607 674.262 -1681.4475661 -45.1457922318 75.3179478366 37.2096047276 3.97768 0.977245 5.8261 3.99635 0.605191 5.87624 4.04753 -0.227007 5.90286 3.99964 0.706452 5.86497 -9.43055 8.12894 -6.72546 -9.38095 19.854 -4.64327 -0.0 0.0 -0.0 -8.1744 14.6532 -11.7354 -14.4568 -22.3025 67.8914 0.638611 -17.5548 0.0986056 1.15206 0.039165 -0.141924 0.522005 29.0974 14.2618 -0.0 0.0 -0.0 10.4448 2.03189 -20.6768 -3.14649 25.9691 -75.0436 1.57106 37.8893 -0.539291 15.6575 -0.283556 1.9738 -0.749928 21.9652 14.3597 0.0 0.0 0.0 31.1689 3.33803 4.96688 -12.127 0.306364 1.83239 16.531 3.28808 -2.2977 -34.4685 0.0 0.0 -0.0 0.0 -0.0 -5.13183 8.72038 4.29596 -30.6412 -0.0189716 -4.64665 39.6461 -4.3957 4.82732 20.8348 -0.0 -0.0 0.0 0.0 0.0 
2978.8926041 674.262 -1683.04014883 -43.9274978546 74.9897329282 35.9492443114 3.97768 0.977245 5.8261 3.99635 0.605191 5.87624 4.04753 -0.227007 5.90286 3.99964 0.706452 5.86497 -9.43055 8.12894 -6.72546 -9.38095 19.854 -4.64327 -0.0 0.0 -0.0 -8.1744 14.6532 -11.7354 -14.4568 -22.3025 67.8914 0.638611 -17.5548 0.0986056 1.15206 0.039165 -0.141924 0.522005 29.0974 14.2618 -0.0 0.0 -0.0 10.4448 2.03189 -20.6768 -3.14649 25.9691 -75.0436 1.57106 37.8893 -0.539291 15.6575 -0.283556 1.9738 -0.749928 21.9652 14.3597 0.0 0.0 0.0 31.1689 3.33803 4.96688 -12.127 0.306364 1.83239 16.531 3.28808 -2.2977 -34.4685 0.0 0.0 -0.0 0.0 -0.0 -5.13183 8.72038 4.29596 -30.6412 -0.0189716 -4.64665 39.6461 -4.3957 4.82732 20.8348 -0.0 -0.0 0.0 0.0 0.0 
2968.05396459 681.737 -1687.268024 -42.5694285784 74.8628251137 34.6714679852 3.89715 0.790059 5.80285 3.91578 0.419852 5.84119 3.94814 -0.416697 5.84142 3.90092 0.509464 5.83408 -9.04296 7.19693 -6.10555 -8.98432 17.6993 -4.3245 -0.0 0.0 -0.0 -7.73895 13.1932 -11.458 -12.2846 -22.6011 67.7782 0.687768 -18.814 0.113947 2.01561 0.0666444 -0.2488 0.650816 29.3512 15.0578 -0.0 0.0 -0.0 10.6835 2.1753 -21.1884 -4.86119 24.4943 -74.5283 1.34312 33.6358 -0.405986 15.0315 -0.282636 1.89385 -0.630731 20.953 13.1414 0.0 0.0 0.0 29.8044 2.02507 5.38775 -10.8074 0.291933 1.63044 14.7952 2.97297 -2.07235 -34.4816 0.0 0.0 -0.0 0.0 -0.0 -2.2597 7.90697 4.24282 -33.179 0.090769 -5.02058 37.092 -4.1431 4.59802 20.0953 -0.0 -0.0 0.0 0.0 0.0 
2943.80871811 685.265 -1693.04681167 -37.662739061 75.3490965814 29.6854432754 3.67438 0.839347 5.65571 3.69204 0.478357 5.69747 3.73082 -0.359654 5.70616 3.68583 0.544546 5.69154 -9.44912 7.48525 -7.16682 -9.37254 18.9479 -5.23551 -0.0 0.0 -0.0 -7.87266 10.7594 -12.4664 -7.48584 -24.3942 68.7171 0.864628 -23.1858 0.177374 3.94578 0.122216 -0.489079 0.907319 29.1876 16.4477 -0.0 0.0 -0.0 10.7651 0.446103 -21.2716 -7.34423 22.9476 -74.0533 1.06003 27.7037 -0.261393 14.1872 -0.280013 1.78604 -0.433199 20.6211 11.6725 0.0 0.0 0.0 26.8887 0.718476 6.15192 -12.1178 0.30628 1.83098 18.9262 -0.896336 -2.62286 -31.3557 0.0 0.0 -0.0 0.0 -0.0 0.110717 8.24865 4.29931 -41.2919 0.550994 -6.17817 40.0278 -5.52711 4.86044 20.1188 -0.0 -0.0 0.0 0.0 0.0 
2934.26749023 685.547 -1692.5704854 -38.7832381622 77.35434191 31.1315184548 3.51084 0.770729 5.55495 3.5279 0.416257 5.59258 3.56081 -0.42264 5.5921 3.5175 0.464415 5.5888 -11.9546 7.89598 -7.90613 -11.9809 20.0464 -5.38467 -0.0 0.0 -0.0 -8.13721 10.0477 -13.1767 -2.08402 -25.9393 69.3127 1.03745 -27.1989 0.25098 5.36422 0.157875 -0.666759 1.00199 28.935 16.9111 -0.0 0.0 -0.0 10.7282 0.963148 -21.2229 -9.14596 22.4824 -74.0628 0.916327 24.414 -0.198238 13.5704 -0.277093 1.70731 -0.416565 20.9624 11.7018 0.0 0.0 0.0 25.1008 0.0490707 6.49115 -12.1353 0.306441 1.83367 20.4403 -2.73305 -2.82635 -30.1089 0.0 0.0 -0.0 0.0 -0.0 3.89848 6.13581 4.78895 -47.1877 0.986154 -6.97354 39.6903 -6.24644 4.83204 21.0976 -0.0 -0.0 0.0 0.0 0.0 
2923.76758272 683.296 -1690.58603587 -39.8704013494 78.4205711665 32.2522938933 3.45825 0.751791 5.52414 3.47513 0.399308 5.56064 3.50649 -0.439981 5.55758 3.46369 0.441863 5.55743 -13.3139 8.30446 -6.97981 -13.4538 20.1358 -4.10829 -0.0 0.0 -0.0 -8.45451 9.48101 -13.9493 2.08629 -27.689 69.6602 1.19298 -30.5806 0.326156 5.76689 0.167195 -0.717352 1.11227 28.3443 17.3741 -0.0 0.0 -0.0 10.882 0.991263 -21.5488 -10.8959 21.1489 -72.804 0.740445 20.1428 -0.131514 13.8082 -0.27832 1.73767 -0.361243 19.3435 10.6569 0.0 0.0 0.0 23.1918 -0.606504 7.05834 -10.6475 0.289869 1.60599 22.8123 -4.82852 -3.13803 -28.5419 0.0 0.0 -0.0 0.0 -0.0 6.44218 6.20681 4.70353 -52.8497 1.47931 -7.6922 39.1311 -6.99023 4.78445 22.0159 -0.0 -0.0 0.0 0.0 0.0 
2923.03454325 683.296 -1678.32857071 -50.3715503699 80.382536792 42.9330964046 3.45825 0.751791 5.52414 3.47513 0.399308 5.56064 3.50649 -0.439981 5.55758 3.46369 0.441863 5.55743 -13.3139 8.30446 -6.97981 -13.4538 20.1358 -4.10829 -0.0 0.0 -0.0 -8.45451 9.48101 -13.9493 2.08629 -27.689 69.6602 1.19298 -30.5806 0.326156 5.76689 0.167195 -0.717352 1.11227 28.3443 17.3741 -0.0 0.0 -0.0 10.882 0.991263 -21.5488 -10.8959 21.1489 -72.804 0.740445 20.1428 -0.131514 13.8082 -0.27832 1.73767 -0.361243 19.3435 10.6569 0.0 0.0 0.0 23.1918 -0.606504 7.05834 -10.6475 0.289869 1.60599 22.8123 -4.82852 -3.13803 -28.5419 0.0 0.0 -0.0 0.0 -0.0 6.44218 6.20681 4.70353 -52.8497 1.47931 -7.6922 39.1311 -6.99023 4.78445 22.0159 -0.0 -0.0 0.0 0.0 0.0 
2922.91575982 683.296 -1664.67013808 -67.4488614075 81.990941367 60.2097121796 3.45825 0.751791 5.52414 3.47513 0.399308 5.56064 3.50649 -0.439981 5.55758 3.46369 0.441863 5.55743 -13.3139 8.30446 -6.97981 -13.4538 20.1358 -4.10829 -0.0 0.0 -0.0 -8.45451 9.48101 -13.9493 2.08629 -27.689 69.6602 1.19298 -30.5806 0.326156 5.76689 0.167195 -0.717352 1.11227 28.3443 17.3741 -0.0 0.0 -0.0 10.882 0.991263 -21.5488 -10.8959 21.1489 -72.804 0.740445 20.1428 -0.131514 13.8082 -0.27832 1.73767 -0.361243 19.3435 10.6569 0.0 0.0 0.0 23.1918 -0.606504 7.05834 -10.6475 0.289869 1.60599 22.8123 -4.82852 -3.13803 -28.5419 0.0 0.0 -0.0 0.0 -0.0 6.44218 6.20681 4.70353 -52.8497 1.47931 -7.6922 39.1311 -6.99023 4.78445 22.0159 -0.0 -0.0 0.0 0.0 0.0 
2902.16407439 695.382 -1645.87514238 -94.5028653189 82.2211368593 88.4102630303 3.20691 0.548922 4.93689 3.22043 0.234058 4.96173 3.23568 -0.537171 4.93818 3.20175 0.248473 4.96103 -15.2707 6.03707 -7.02361 -15.3557 15.6854 -4.59211 -0.0 0.0 -0.0 -7.07287 5.88629 -12.4013 10.6744 -30.6715 68.6784 1.48374 -36.3137 0.486616 9.28719 0.233471 -1.16208 1.22544 22.489 16.3236 -0.0 0.0 -0.0 11.2478 0.881896 -22.3174 -17.4238 19.2358 -69.1674 0.466769 13.0195 -0.0532624 11.9996 -0.26583 1.507 -0.61158 14.995 10.5311 0.0 0.0 0.0 19.6831 -1.76547 6.76455 -5.84536 0.196156 0.875257 20.9415 -9.51 -2.96924 -26.3626 0.0 0.0 -0.0 0.0 -0.0 24.9369 0.0379041 6.5539 -63.5921 2.6001 -8.90892 33.4016 -12.1839 4.26726 24.0818 -0.0 -0.0 0.0 0.0 0.0 
2890.57347301 694.838 -1635.52566269 -90.4046385036 82.0538103704 84.8767353882 3.10149 0.519778 4.75163 3.11402 0.216718 4.775 3.12779 -0.534304 4.75002 3.09638 0.221695 4.77478 -14.6685 5.44986 -7.29794 -14.7001 14.7844 -5.13437 -0.0 0.0 -0.0 -6.69306 4.48924 -12.0415 12.931 -31.3275 68.1666 1.55148 -37.5417 0.527314 9.78315 0.240607 -1.22503 1.14714 20.5672 15.2392 -0.0 0.0 -0.0 11.1943 1.03473 -22.213 -20.0689 18.6317 -68.4974 0.411788 11.5297 -0.0415727 11.7813 -0.263831 1.4792 -0.655444 13.6201 10.2489 0.0 0.0 0.0 18.8849 -1.80046 6.71801 -5.45057 0.185732 0.815568 19.2223 -11.176 -2.77467 -25.7086 0.0 0.0 -0.0 0.0 -0.0 28.0627 -1.08454 7.23893 -63.7364 2.61667 -8.9238 32.645 -13.6589 4.20294 24.3606 -0.0 -0.0 0.0 0.0 0.0 
